# xmcd
#
# Track frame offsets: 
#        212
#        40880
#        64375
#        84265
#        107187
#        120452
#        148520
#        157055
#        169000
#        173102
#        187670
#        200385
#        210130
#        215412
#        218360
#
# Disc length: 3040 seconds
#
# Revision: 2
# Processed by: cddbd v1.5.2PL0 Copyright (c) Steve Scherf et al.
# Submitted via: ExactAudioCopy v0.95b3
#
DISCID=c70bde0f
DTITLE=OST - Various - Stormy Monday
DYEAR=1990
DGENRE=Soundtrack
TTITLE0=B.B. KING Stormy Monday
TTITLE1=MIKE FIGGIS Kate And Brendan
TTITLE2=MIKE FIGGIS Weegee
TTITLE3=B.B. KING The Thrill Is Gone
TTITLE4=MIKE FIGGIS On The Quay
TTITLE5=MIKE FIGGIS Dawn And The Tyne
TTITLE6=MIKE FIGGIS The Road To Poland
TTITLE7=MIKE FIGGIS Finney Makes A Point
TTITLE8=KRAKOW JAZZ ENSEMBLE Star Spangled Banner
TTITLE9=MIKE FIGGIS Carrie
TTITLE10=MIKE FIGGIS Just A Closer Walk With Thee
TTITLE11=KRAKOW JAZZ ENSEMBLE Krakow Dawn
TTITLE12=STEPHANIE DE SYKES (I Won't Forget You)
TTITLE13=MIKE FIGGIS Train Across The River
TTITLE14=MIKE FIGGIS Muzac For Lover
EXTD=
EXTT0=
EXTT1=
EXTT2=
EXTT3=
EXTT4=
EXTT5=
EXTT6=
EXTT7=
EXTT8=
EXTT9=
EXTT10=
EXTT11=
EXTT12=
EXTT13=
EXTT14=
PLAYORDER=
